<svg viewBox="0 0 700 420" xmlns="http://www.w3.org/2000/svg"
     style="font-family:-apple-system,system-ui,sans-serif;background:white;">
  <text x="350" y="22" text-anchor="middle" font-size="13" font-weight="700" fill="#222">
    Duration Between Rewards Controls Learning Rate
  </text>
  <text x="350" y="40" text-anchor="middle" font-size="10" fill="#666">
    Schematic of the core result · Namboodiri lab, Nat Neurosci 2026
  </text>
  <text x="350" y="57" text-anchor="middle" font-size="10" fill="#444">
    Same number of trials, same reward — only inter-reward interval differs
  </text>
  <line x1="80" y1="80" x2="80" y2="350" stroke="#ccc" stroke-width="1.2"/><line x1="80" y1="350" x2="660" y2="350" stroke="#ccc" stroke-width="1.2"/><line x1="80.0" y1="350" x2="80.0" y2="354" stroke="#aaa"/><text x="80.0" y="366" text-anchor="middle" font-size="9" fill="#888">0</text><line x1="228.7" y1="350" x2="228.7" y2="354" stroke="#aaa"/><text x="228.7" y="366" text-anchor="middle" font-size="9" fill="#888">10</text><line x1="377.4" y1="350" x2="377.4" y2="354" stroke="#aaa"/><text x="377.4" y="366" text-anchor="middle" font-size="9" fill="#888">20</text><line x1="526.2" y1="350" x2="526.2" y2="354" stroke="#aaa"/><text x="526.2" y="366" text-anchor="middle" font-size="9" fill="#888">30</text><line x1="674.9" y1="350" x2="674.9" y2="354" stroke="#aaa"/><text x="674.9" y="366" text-anchor="middle" font-size="9" fill="#888">40</text><text x="370" y="384" text-anchor="middle" font-size="10" fill="#555">Training trial number (same across groups)</text><line x1="76" y1="350.0" x2="80" y2="350.0" stroke="#aaa"/><text x="72" y="354.0" text-anchor="end" font-size="9" fill="#888">0%</text><line x1="76" y1="282.5" x2="80" y2="282.5" stroke="#aaa"/><text x="72" y="286.5" text-anchor="end" font-size="9" fill="#888">25%</text><line x1="76" y1="215.0" x2="80" y2="215.0" stroke="#aaa"/><text x="72" y="219.0" text-anchor="end" font-size="9" fill="#888">50%</text><line x1="76" y1="147.5" x2="80" y2="147.5" stroke="#aaa"/><text x="72" y="151.5" text-anchor="end" font-size="9" fill="#888">75%</text><line x1="76" y1="80.0" x2="80" y2="80.0" stroke="#aaa"/><text x="72" y="84.0" text-anchor="end" font-size="9" fill="#888">100%</text><text transform="rotate(-90,18,215)" x="18" y="215" text-anchor="middle" font-size="10" fill="#555">Association strength (schematic)</text><polyline points="80.0,350.0 94.9,344.7 109.7,339.4 124.6,334.3 139.5,329.2 154.4,324.3 169.2,319.5 184.1,314.7 199.0,310.1 213.8,305.5 228.7,301.1 243.6,296.7 258.5,292.4 273.3,288.2 288.2,284.1 303.1,280.0 317.9,276.1 332.8,272.2 347.7,268.4 362.6,264.6 377.4,261.0 392.3,257.4 407.2,253.9 422.1,250.4 436.9,247.1 451.8,243.8 466.7,240.5 481.5,237.3 496.4,234.2 511.3,231.2 526.2,228.2 541.0,225.2 555.9,222.4 570.8,219.5 585.6,216.8 600.5,214.1 615.4,211.4 630.3,208.8 645.1,206.3 660.0,203.8" fill="none" stroke="#c0392b" stroke-width="2.5" stroke-linejoin="round"/><text x="666.0" y="207.8" font-size="9" fill="#c0392b" font-weight="700">Short IRI (5 s)</text><polyline points="80.0,350.0 94.9,333.6 109.7,318.3 124.6,303.8 139.5,290.3 154.4,277.5 169.2,265.6 184.1,254.3 199.0,243.8 213.8,233.8 228.7,224.5 243.6,215.8 258.5,207.5 273.3,199.8 288.2,192.6 303.1,185.7 317.9,179.3 332.8,173.3 347.7,167.7 362.6,162.3 377.4,157.4 392.3,152.7 407.2,148.3 422.1,144.1 436.9,140.2 451.8,136.6 466.7,133.2 481.5,129.9 496.4,126.9 511.3,124.1 526.2,121.4 541.0,118.9 555.9,116.5 570.8,114.3 585.6,112.2 600.5,110.3 615.4,108.5 630.3,106.7 645.1,105.1 660.0,103.6" fill="none" stroke="#e67e22" stroke-width="2.5" stroke-linejoin="round"/><text x="666.0" y="107.6" font-size="9" fill="#e67e22" font-weight="700">Medium IRI (30 s)</text><polyline points="80.0,350.0 94.9,315.3 109.7,285.1 124.6,258.7 139.5,235.8 154.4,215.8 169.2,198.3 184.1,183.1 199.0,169.9 213.8,158.3 228.7,148.3 243.6,139.5 258.5,131.9 273.3,125.2 288.2,119.4 303.1,114.3 317.9,109.9 332.8,106.1 347.7,102.7 362.6,99.8 377.4,97.3 392.3,95.0 407.2,93.1 422.1,91.4 436.9,90.0 451.8,88.7 466.7,87.6 481.5,86.6 496.4,85.7 511.3,85.0 526.2,84.4 541.0,83.8 555.9,83.3 570.8,82.9 585.6,82.5 600.5,82.2 615.4,81.9 630.3,81.7 645.1,81.5 660.0,81.3" fill="none" stroke="#27ae60" stroke-width="2.5" stroke-linejoin="round"/><text x="666.0" y="85.3" font-size="9" fill="#27ae60" font-weight="700">Long IRI (90 s)</text><rect x="100" y="100" width="230" height="62" rx="4" fill="#f0fff4" stroke="#27ae60" stroke-width="1.2"/><text x="110" y="118" font-size="9.5" fill="#1a7a3a" font-weight="700">Key finding (Namboodiri et al. 2026)</text><text x="110" y="134" font-size="8.5" fill="#333">Longer duration between rewards →</text><text x="110" y="147" font-size="8.5" fill="#333">faster learning, trial count held constant.</text><text x="110" y="158" font-size="8" fill="#777">Nat Neurosci 2026 · DOI: 10.1038/s41593-026</text>
</svg>